<svg version="1.1" id="Layer_1" xmlns="http://www.w3.org/2000/svg" xmlns:xlink="http://www.w3.org/1999/xlink" x="0px" y="0px"
	 width="100%" viewBox="0 0 1024 912" enable-background="new 0 0 1024 912" xml:space="preserve">
<path fill="#267bc5" opacity="1.000000" stroke="none" 
	d="
M563.666687,1.000000 
	C571.360718,17.970686 580.344910,34.146255 588.393799,50.780350 
	C592.454956,59.173439 596.617310,67.520050 600.892151,75.806015 
	C602.438293,78.802963 602.223694,81.236534 600.457336,84.145760 
	C549.014832,168.871765 497.668243,253.656036 446.271027,338.409546 
	C391.764221,428.290771 337.242401,518.162842 282.687683,608.015076 
	C238.161484,681.350159 193.570251,754.645813 149.029312,827.972046 
	C144.473862,835.471497 140.065216,843.060059 135.628632,850.539551 
	C137.633392,852.408447 139.504715,852.291809 141.277924,852.280273 
	C162.602676,852.142090 183.929657,851.691650 205.247406,852.581421 
	C208.993744,852.737854 211.401581,851.385559 213.392303,848.126343 
	C257.941498,775.189758 303.863556,703.113464 349.588531,630.913086 
	C394.689148,559.698608 439.764313,488.468170 483.392822,416.333618 
	C531.684448,336.489105 578.560852,255.853729 620.693481,172.543137 
	C624.527649,164.961685 628.405762,157.402390 632.281189,149.841873 
	C633.101685,148.241287 633.656738,146.443390 635.929626,144.813171 
	C638.312805,149.318390 640.689514,153.579147 642.857178,157.943695 
	C681.461609,235.671539 720.044312,313.410156 758.623779,391.150330 
	C785.278564,444.861511 811.843323,498.617462 838.591431,552.282043 
	C864.971985,605.209412 891.575317,658.025635 918.003601,710.929321 
	C951.130249,777.241821 984.178650,843.593384 1017.248474,909.934265 
	C1017.614929,910.669373 1017.815002,911.487305 1018.046387,912.633301 
	C791.979126,913.000000 565.958191,913.000000 339.635559,912.703552 
	C358.429596,880.930786 377.486725,849.430969 396.630524,817.983887 
	C424.002686,773.020203 451.556763,728.166870 478.806702,683.129456 
	C498.375702,650.786743 517.056702,617.896912 537.064575,585.832031 
	C564.485840,541.886353 592.294434,498.184906 618.852722,453.704895 
	C620.316101,451.253998 621.243408,448.173584 625.350830,446.414825 
	C657.803589,511.470093 690.203796,576.419983 722.764343,641.691406 
	C721.278931,642.047363 720.649048,642.329468 720.018799,642.330444 
	C692.856140,642.372742 665.693481,642.363831 638.531006,642.451782 
	C635.887329,642.460388 634.711243,641.080139 633.664246,639.004944 
	C629.313049,630.380066 624.933350,621.768799 620.461121,613.206238 
	C617.792297,608.096436 615.745300,607.937012 612.849365,612.745422 
	C596.863037,639.289246 578.627136,664.373657 562.693298,690.972107 
	C531.703308,742.703674 500.114807,794.076721 468.796265,845.611694 
	C467.876587,847.125000 466.465698,848.506897 466.866241,850.635681 
	C468.710052,852.653748 471.180542,851.961975 473.415894,851.963440 
	C521.409363,851.995667 569.402832,851.981079 617.396301,851.983704 
	C708.717285,851.988770 800.038269,851.999268 891.359253,852.005554 
	C894.825439,852.005798 898.339355,852.204346 901.525146,849.829468 
	C901.308655,846.701599 899.498352,844.234924 898.193176,841.615784 
	C880.295410,805.698425 862.407043,769.776245 844.417236,733.904846 
	C818.072083,681.373169 793.241638,628.101868 766.110291,575.944397 
	C740.590393,526.884949 716.423279,477.121613 691.690125,427.653381 
	C672.842102,389.955811 654.042969,352.233826 635.207275,314.530090 
	C634.273865,312.661591 634.107910,309.778412 631.576721,309.594818 
	C629.049683,309.411530 628.363953,312.198517 627.284058,313.960724 
	C611.617615,339.526520 595.991211,365.116974 580.390198,390.722778 
	C537.745544,460.715271 495.115723,530.716797 452.483185,600.716675 
	C394.773041,695.473022 337.034546,790.212036 279.406952,885.018555 
	C273.793823,894.253052 267.514832,903.115295 263.000000,913.000000 
	C178.645767,913.000000 94.291542,913.000000 9.578032,912.674255 
	C20.958042,892.975708 32.670380,873.586426 44.441692,854.233093 
	C79.585701,796.452393 114.792099,738.709595 149.900879,680.907532 
	C192.101013,611.430359 234.215271,541.901062 276.386230,472.406219 
	C313.457916,411.314667 350.580475,350.253998 387.636993,289.153229 
	C428.580566,221.643280 469.491547,154.113510 510.382019,86.571358 
	C527.633728,58.075272 544.796692,29.525421 562.000000,1.000001 
	C562.444458,1.000000 562.888916,1.000000 563.666687,1.000000 
z"/>
<path fill="#267bc5" opacity="1.000000" stroke="none" 
	d="
M722.333008,807.989319 
	C722.330627,811.318420 722.380066,814.151184 722.316895,816.981445 
	C722.084717,827.392334 713.582336,836.041931 703.234924,836.300842 
	C698.241089,836.425781 693.240356,836.398804 688.244934,836.311707 
	C677.093445,836.117371 668.932922,827.763611 668.669067,816.505188 
	C668.396423,804.872986 671.395386,804.897339 656.621582,804.970337 
	C647.960510,805.013123 639.284912,805.263184 630.642639,804.854431 
	C625.039917,804.589478 622.448730,806.865540 621.395142,812.123047 
	C620.049561,818.837585 618.306580,825.413818 612.752014,830.235291 
	C608.293457,834.105591 603.370544,836.425781 597.377502,836.348145 
	C591.548767,836.272644 585.718201,836.354431 579.888489,836.330688 
	C565.778442,836.273193 557.905457,826.117859 561.480591,812.309448 
	C565.889343,795.281433 570.514648,778.309631 575.031372,761.309509 
	C578.018921,750.064636 581.104980,738.844055 583.927185,727.557678 
	C589.837646,703.920959 608.070068,688.050049 633.551270,683.567200 
	C649.470764,680.766541 665.428040,682.077576 681.372803,681.700012 
	C688.198120,681.538391 695.030579,681.648254 701.859619,681.680664 
	C713.921265,681.737854 722.289429,690.010559 722.305115,702.056213 
	C722.351013,737.201355 722.328796,772.346619 722.333008,807.989319 
M641.703735,738.328003 
	C640.647278,741.822998 639.461182,745.285156 638.564941,748.820801 
	C637.236084,754.062988 638.377136,755.525696 643.728333,755.612244 
	C648.381104,755.687500 653.036316,755.607849 657.690430,755.610474 
	C668.679443,755.616577 668.750610,755.619385 668.664734,744.857178 
	C668.546204,729.992065 670.756897,731.249451 654.590942,731.166565 
	C649.204834,731.138916 644.811035,732.751099 641.703735,738.328003 
z"/>
<path fill="#267bc5" opacity="1.000000" stroke="none" 
	d="
M733.661865,750.999878 
	C733.662231,734.844849 733.643005,719.189758 733.669556,703.534790 
	C733.692566,689.985718 741.932861,681.692932 755.334473,681.671814 
	C759.664612,681.665039 763.995361,681.623962 768.324707,681.684021 
	C779.613586,681.840515 788.305420,690.424072 788.318665,701.591370 
	C788.363892,739.896179 788.372192,778.201050 788.327820,816.505798 
	C788.315063,827.513306 779.748535,836.094482 768.743896,836.321289 
	C765.081482,836.396790 761.389893,836.051331 757.756958,836.388000 
	C741.872925,837.859802 732.978210,826.547668 733.478882,812.448242 
	C734.199524,792.155518 733.662354,771.818237 733.661865,750.999878 
z"/>
</svg>